M48
; DRILL file {KiCad 9.0.7} date 2026-07-04T19:08:48-0400
; FORMAT={-:-/ absolute / inch / decimal}
; #@! TF.CreationDate,2026-07-04T19:08:48-04:00
; #@! TF.GenerationSoftware,Kicad,Pcbnew,9.0.7
; #@! TF.FileFunction,Plated,1,4,PTH
FMAT,2
INCH
; #@! TA.AperFunction,Plated,PTH,ComponentDrill
T1C0.0079
; #@! TA.AperFunction,Plated,PTH,ViaDrill
T2C0.0118
; #@! TA.AperFunction,Plated,PTH,ComponentDrill
T3C0.0157
; #@! TA.AperFunction,Plated,PTH,ViaDrill
T4C0.0197
; #@! TA.AperFunction,Plated,PTH,ComponentDrill
T5C0.0236
; #@! TA.AperFunction,Plated,PTH,ComponentDrill
T6C0.0276
; #@! TA.AperFunction,Plated,PTH,ComponentDrill
T7C0.0374
; #@! TA.AperFunction,Plated,PTH,ComponentDrill
T8C0.0394
; #@! TA.AperFunction,Plated,PTH,ComponentDrill
T9C0.0866
%
G90
G05
T1
X5.9291Y-2.2602
X5.9291Y-2.3154
X5.9567Y-2.2327
X5.9567Y-2.2878
X5.9567Y-2.3429
X5.9843Y-2.2602
X5.9843Y-2.3154
X6.0118Y-2.2327
X6.0118Y-2.2878
X6.0118Y-2.3429
X6.0394Y-2.2602
X6.0394Y-2.3154
T2
X4.8425Y-2.3622
X4.8811Y-2.9237
X4.8819Y-2.7559
X4.8819Y-3.4449
X4.8819Y-3.5039
X4.8819Y-3.9764
X4.9012Y-2.9524
X4.9016Y-2.5984
X4.9016Y-3.1496
X4.9016Y-3.2874
X4.9016Y-3.3858
X4.9016Y-3.5827
X4.9213Y-2.4803
X4.9213Y-2.9724
X4.9409Y-2.9331
X4.9803Y-2.5984
X5.0Y-2.2441
X5.0Y-2.5591
X5.0Y-3.2087
X5.0Y-3.563
X5.0197Y-2.7953
X5.0197Y-4.0551
X5.0394Y-2.8543
X5.0394Y-2.9724
X5.0394Y-3.8583
X5.0591Y-2.3228
X5.0591Y-2.5
X5.0591Y-2.7559
X5.0591Y-4.3504
X5.0787Y-2.0472
X5.0787Y-2.4016
X5.0787Y-2.815
X5.0787Y-3.1102
X5.0984Y-3.2874
X5.1181Y-2.1654
X5.1181Y-2.7165
X5.1181Y-3.5236
X5.1181Y-4.1732
X5.1378Y-2.4409
X5.1378Y-3.0709
X5.1378Y-3.7008
X5.1575Y-2.2835
X5.1575Y-3.2087
X5.1575Y-3.4843
X5.1772Y-3.5236
X5.1772Y-3.5827
X5.181Y-2.5448
X5.1877Y-3.1299
X5.1969Y-3.0315
X5.1969Y-3.8189
X5.1969Y-3.9567
X5.1969Y-4.3701
X5.2015Y-2.5243
X5.2153Y-3.2296
X5.2165Y-2.6772
X5.2165Y-2.9921
X5.2165Y-4.0354
X5.2316Y-3.204
X5.2362Y-2.9528
X5.2362Y-3.1693
X5.2362Y-3.4252
X5.2363Y-3.3268
X5.2363Y-3.3951
X5.2409Y-2.4849
X5.2559Y-2.874
X5.2559Y-4.252
X5.2756Y-2.5197
X5.2953Y-2.9528
X5.315Y-2.3622
X5.315Y-2.4016
X5.315Y-2.4606
X5.315Y-2.5394
X5.315Y-2.7953
X5.315Y-4.5472
X5.315Y-4.6574
X5.3346Y-2.8937
X5.3346Y-3.2283
X5.3346Y-3.6024
X5.3406Y-3.6358
X5.3543Y-3.9961
X5.374Y-2.2732
X5.374Y-2.9331
X5.374Y-3.189
X5.3937Y-4.5669
X5.4134Y-2.4409
X5.4331Y-3.7008
X5.4369Y-2.2692
X5.4478Y-2.2244
X5.4528Y-3.248
X5.4528Y-4.3701
X5.4724Y-2.7802
X5.4921Y-3.2087
X5.4921Y-4.1142
X5.5118Y-3.4646
X5.5273Y-4.1783
X5.5315Y-3.6417
X5.5315Y-3.8189
X5.5315Y-4.1142
X5.5512Y-3.3268
X5.5512Y-3.3858
X5.5542Y-2.7802
X5.5709Y-2.2638
X5.5709Y-4.6457
X5.5906Y-3.4252
X5.6102Y-3.4843
X5.6102Y-4.0354
X5.6102Y-4.1142
X5.6299Y-2.2244
X5.6299Y-2.3622
X5.6299Y-2.4213
X5.6299Y-2.7362
X5.6299Y-3.0315
X5.6299Y-3.6417
X5.6299Y-4.4094
X5.6496Y-3.7402
X5.6693Y-2.6969
X5.6693Y-2.7559
X5.6693Y-2.8937
X5.6693Y-2.9528
X5.6693Y-3.1102
X5.689Y-3.0315
X5.689Y-4.0551
X5.6936Y-2.9968
X5.7087Y-2.6772
X5.7087Y-3.878
X5.7283Y-2.8346
X5.7283Y-3.3071
X5.7283Y-3.75
X5.7406Y-3.3587
X5.748Y-2.5591
X5.748Y-3.937
X5.7677Y-2.2441
X5.7677Y-2.4803
X5.7677Y-2.6286
X5.7677Y-3.1102
X5.7677Y-3.5827
X5.7874Y-2.3819
X5.7874Y-2.5394
X5.7874Y-2.5787
X5.8071Y-3.1693
X5.8071Y-3.248
X5.8071Y-3.6024
X5.8071Y-3.6024
X5.8268Y-2.0079
X5.8268Y-2.7756
X5.8268Y-3.8976
X5.8268Y-4.0157
X5.8318Y-3.0554
X5.8394Y-3.3794
X5.8465Y-3.1102
X5.8465Y-3.622
X5.8465Y-3.7402
X5.8661Y-2.2047
X5.8661Y-2.2638
X5.8661Y-2.4016
X5.8661Y-2.5197
X5.8787Y-3.4449
X5.8858Y-2.8937
X5.8858Y-4.3504
X5.8957Y-3.1398
X5.9055Y-2.0472
X5.9055Y-3.3268
X5.9252Y-2.4606
X5.9252Y-3.0315
X5.9252Y-3.4449
X5.9449Y-2.6189
X5.9449Y-3.3268
X5.9597Y-3.066
X5.9617Y-3.5011
X5.9843Y-2.4016
X5.9843Y-2.5984
X5.9843Y-2.9528
X5.9843Y-3.3268
X6.0214Y-2.6121
X6.0236Y-3.4646
X6.0433Y-2.5394
X6.0433Y-3.0126
X6.0433Y-3.2874
X6.0433Y-3.7008
X6.0578Y-2.4948
X6.0623Y-2.4374
X6.063Y-3.3661
X6.0676Y-2.4653
X6.0771Y-2.3686
X6.078Y-2.3969
X6.0827Y-2.8346
X6.0827Y-3.5433
X6.1024Y-2.0472
X6.1024Y-2.2835
X6.1024Y-2.7559
X6.1024Y-3.2874
X6.1024Y-4.4094
X6.122Y-2.5394
X6.122Y-2.9528
X6.1417Y-2.8346
X6.1614Y-2.2244
X6.1614Y-2.7756
X6.1614Y-3.4449
X6.1614Y-3.937
X6.1614Y-4.1339
X6.2008Y-2.4803
X6.2008Y-4.0354
X6.2205Y-2.1071
X6.2205Y-3.3465
X6.2316Y-3.7316
X6.2402Y-2.0472
X6.2402Y-2.3031
X6.2402Y-2.5394
X6.2402Y-2.874
X6.2402Y-3.0118
X6.2402Y-4.0551
X6.2598Y-2.3622
X6.2598Y-3.7598
X6.2598Y-4.1732
X6.2598Y-4.4094
X6.2795Y-2.0079
X6.2795Y-2.4606
X6.2795Y-4.0551
X6.2992Y-2.7559
X6.3189Y-2.2047
X6.3189Y-2.5591
X6.3189Y-4.0354
X6.3386Y-3.5236
X6.3386Y-3.622
X6.3386Y-3.9961
X6.3386Y-4.2717
X6.3583Y-2.8346
X6.3583Y-3.2874
X6.3728Y-2.9083
X6.378Y-2.7362
X6.378Y-3.9961
X6.378Y-3.9961
X6.378Y-4.1142
X6.3898Y-3.8268
X6.3976Y-2.7756
X6.4173Y-3.9961
X6.437Y-1.9882
X6.437Y-3.2087
X6.4567Y-2.2047
X6.4567Y-2.8346
X6.4567Y-3.878
X6.4567Y-4.0354
X6.4567Y-4.2126
X6.4764Y-2.4538
X6.4764Y-3.3071
X6.4961Y-2.7559
X6.5157Y-2.0079
X6.5157Y-3.1299
X6.5157Y-4.3504
X6.5157Y-4.4488
X6.5354Y-2.1063
X6.5354Y-2.2638
X6.5354Y-2.6378
X6.5354Y-2.7953
X6.5354Y-2.8937
X6.5354Y-4.0787
X6.5551Y-3.5039
X6.5551Y-3.622
X6.5748Y-2.8346
X6.5748Y-3.8386
X6.5945Y-4.1929
X6.6142Y-2.7953
X6.6142Y-3.2874
X6.6142Y-3.4055
X6.6142Y-3.5433
X6.6142Y-4.0551
X6.6339Y-2.2638
X6.6339Y-3.7402
X6.6339Y-4.3307
X6.6535Y-2.8346
X6.6535Y-3.0906
X6.6732Y-2.2047
X6.6732Y-3.3071
X6.6732Y-4.0157
X6.6929Y-2.3622
X6.7126Y-2.5984
X6.7323Y-2.815
X6.7323Y-3.1102
X6.7323Y-3.189
X6.7323Y-3.4449
X6.7323Y-3.8386
X6.7717Y-2.185
X6.7717Y-4.1732
X6.7717Y-4.4291
X6.7913Y-2.5787
X6.7913Y-2.8346
X6.7913Y-2.9724
X6.7913Y-3.5433
X6.811Y-4.311
X6.8117Y-3.6621
X6.8307Y-2.7165
X6.8504Y-3.7992
X6.8504Y-4.0354
X6.8701Y-2.3622
X6.8701Y-3.1102
X6.8898Y-3.5827
X6.9291Y-2.2244
X6.9291Y-3.3661
X6.9291Y-3.8583
X6.9291Y-4.311
X6.9488Y-2.5
X6.9488Y-3.189
X6.9555Y-3.7271
X6.9685Y-2.0866
X6.9685Y-2.7756
X6.9882Y-2.6969
X6.9882Y-3.0118
X6.9882Y-3.7205
X6.9882Y-4.0748
X7.0276Y-2.3228
X7.0472Y-2.0079
X7.0669Y-2.1457
X7.0669Y-4.5669
X7.0866Y-2.5984
X7.0866Y-4.0551
X7.1063Y-2.7756
X7.1063Y-2.9921
X7.1063Y-3.4449
X7.126Y-2.2441
X7.126Y-3.2874
X7.126Y-4.3504
X7.2047Y-3.5236
X7.2244Y-3.6417
X7.2441Y-2.3819
X7.2835Y-4.4488
X7.3031Y-2.2441
X7.3031Y-3.7008
T3
X4.8497Y-2.0538
X4.8497Y-4.5801
X4.8688Y-2.0079
X4.8688Y-2.0997
X4.8688Y-4.5341
X4.8688Y-4.626
X4.9147Y-1.9888
X4.9147Y-2.1188
X4.9147Y-4.5151
X4.9147Y-4.645
X4.9606Y-2.0079
X4.9606Y-2.0997
X4.9606Y-4.5341
X4.9606Y-4.626
X4.9797Y-2.0538
X4.9797Y-4.5801
X7.1529Y-2.0604
X7.1529Y-4.5866
X7.1719Y-2.0144
X7.1719Y-2.1063
X7.1719Y-4.5407
X7.1719Y-4.6325
X7.2178Y-1.9954
X7.2178Y-2.1253
X7.2178Y-4.5217
X7.2178Y-4.6516
X7.2638Y-2.0144
X7.2638Y-2.1063
X7.2638Y-4.5407
X7.2638Y-4.6325
X7.2828Y-2.0604
X7.2828Y-4.5866
T4
X5.1772Y-3.3884
X5.2118Y-3.3496
X5.3937Y-2.8346
X5.4134Y-3.1496
X5.4921Y-2.2835
X5.5512Y-3.1449
X5.6299Y-2.0079
X5.6496Y-3.4055
X5.6693Y-3.2283
X5.7874Y-4.1142
X5.8465Y-4.0945
X5.9646Y-3.7402
X6.122Y-3.0906
X6.2992Y-3.0906
X6.4173Y-3.6024
X6.4961Y-3.0118
X6.5748Y-3.4449
X6.5748Y-4.0157
X6.6929Y-2.4213
X6.6929Y-2.5394
X6.7323Y-3.3071
X6.8307Y-3.878
X7.0043Y-2.8508
X7.0276Y-4.2126
X7.0472Y-2.5394
T6
X5.2012Y-4.5125
X5.4287Y-4.5125
T7
X4.94Y-4.1142
X4.94Y-4.2126
X4.94Y-4.311
X4.9409Y-3.6614
X4.9409Y-3.7598
X4.9409Y-3.8583
X5.2953Y-2.0866
X5.3937Y-2.0866
X5.4921Y-2.0866
X5.7087Y-4.5669
X5.8071Y-4.5669
X5.9055Y-4.5669
X6.0039Y-4.5669
X6.1024Y-4.5669
X6.2008Y-4.5669
X6.2992Y-4.5669
X6.3976Y-4.5669
X6.4961Y-4.5669
X6.5945Y-4.5669
X6.6929Y-4.5669
X6.7913Y-4.5669
X6.8898Y-4.5669
X6.9882Y-4.5669
X7.2244Y-2.5591
X7.2244Y-2.6575
X7.2244Y-2.7559
X7.2244Y-2.8543
X7.2244Y-2.9528
X7.2244Y-3.0512
X7.2244Y-3.1496
X7.2244Y-3.248
X7.2244Y-3.8976
X7.2244Y-3.9961
X7.2244Y-4.0945
X7.2244Y-4.1929
T8
X4.9382Y-2.3839
X4.9382Y-2.6988
X6.7028Y-2.0856
X6.8012Y-2.0856
T9
X4.9147Y-2.0538
X4.9147Y-4.5801
X7.2178Y-2.0604
X7.2178Y-4.5866
T5
G00X5.1449Y-4.4739
M15
G01X5.1449Y-4.5094
M16
G05
G00X5.1449Y-4.6456
M15
G01X5.1449Y-4.6692
M16
G05
G00X5.485Y-4.4739
M15
G01X5.485Y-4.5094
M16
G05
G00X5.485Y-4.6456
M15
G01X5.485Y-4.6692
M16
G05
M30
