%TF.GenerationSoftware,KiCad,Pcbnew,9.0.7*%
%TF.CreationDate,2026-07-04T19:08:48-04:00*%
%TF.ProjectId,FC,46432e6b-6963-4616-945f-706362585858,rev?*%
%TF.SameCoordinates,Original*%
%TF.FileFunction,Paste,Top*%
%TF.FilePolarity,Positive*%
%FSLAX46Y46*%
G04 Gerber Fmt 4.6, Leading zero omitted, Abs format (unit mm)*
G04 Created by KiCad (PCBNEW 9.0.7) date 2026-07-04 19:08:48*
%MOMM*%
%LPD*%
G01*
G04 APERTURE LIST*
G04 Aperture macros list*
%AMRoundRect*
0 Rectangle with rounded corners*
0 $1 Rounding radius*
0 $2 $3 $4 $5 $6 $7 $8 $9 X,Y pos of 4 corners*
0 Add a 4 corners polygon primitive as box body*
4,1,4,$2,$3,$4,$5,$6,$7,$8,$9,$2,$3,0*
0 Add four circle primitives for the rounded corners*
1,1,$1+$1,$2,$3*
1,1,$1+$1,$4,$5*
1,1,$1+$1,$6,$7*
1,1,$1+$1,$8,$9*
0 Add four rect primitives between the rounded corners*
20,1,$1+$1,$2,$3,$4,$5,0*
20,1,$1+$1,$4,$5,$6,$7,0*
20,1,$1+$1,$6,$7,$8,$9,0*
20,1,$1+$1,$8,$9,$2,$3,0*%
G04 Aperture macros list end*
%ADD10R,0.900000X0.800000*%
%ADD11R,0.566000X0.540000*%
%ADD12R,0.864000X0.806000*%
%ADD13R,0.700000X1.250000*%
%ADD14R,0.800000X0.900000*%
%ADD15R,0.806000X0.864000*%
%ADD16R,1.070000X0.532000*%
%ADD17R,1.072000X0.532000*%
%ADD18R,0.550000X1.100000*%
%ADD19R,0.300000X1.100000*%
%ADD20R,3.320000X2.150000*%
%ADD21R,1.410000X1.350000*%
%ADD22R,0.675000X0.280000*%
%ADD23R,0.280000X0.675000*%
%ADD24R,1.200000X1.400000*%
%ADD25R,1.800000X1.700000*%
%ADD26R,0.800000X0.300000*%
%ADD27R,0.800000X0.350000*%
%ADD28R,1.250000X0.700000*%
%ADD29R,1.350000X1.410000*%
%ADD30R,1.230000X1.860000*%
%ADD31R,0.800000X0.864000*%
%ADD32R,1.070000X0.600000*%
%ADD33RoundRect,0.125000X0.000000X-0.176777X0.176777X0.000000X0.000000X0.176777X-0.176777X0.000000X0*%
%ADD34RoundRect,0.062500X-0.203293X-0.291682X0.291682X0.203293X0.203293X0.291682X-0.291682X-0.203293X0*%
%ADD35RoundRect,0.062500X0.203293X-0.291682X0.291682X-0.203293X-0.203293X0.291682X-0.291682X0.203293X0*%
%ADD36R,0.900000X1.000000*%
%ADD37R,1.635000X2.700000*%
%ADD38R,0.900000X0.900000*%
%ADD39R,1.500000X0.900000*%
%ADD40R,0.900000X1.500000*%
%ADD41R,1.250000X1.700000*%
%ADD42R,2.000000X5.300000*%
%ADD43R,1.300000X0.600000*%
%ADD44R,1.400000X1.200000*%
%ADD45R,2.000000X1.200000*%
%ADD46RoundRect,0.062500X-0.127500X-0.062500X0.127500X-0.062500X0.127500X0.062500X-0.127500X0.062500X0*%
%ADD47RoundRect,0.125000X-0.125000X-0.125000X0.125000X-0.125000X0.125000X0.125000X-0.125000X0.125000X0*%
%ADD48RoundRect,0.075000X-0.548008X0.441942X0.441942X-0.548008X0.548008X-0.441942X-0.441942X0.548008X0*%
%ADD49RoundRect,0.075000X-0.548008X-0.441942X-0.441942X-0.548008X0.548008X0.441942X0.441942X0.548008X0*%
%ADD50R,2.350000X3.500000*%
%ADD51R,0.540000X0.566000*%
%ADD52R,0.532000X1.072000*%
%ADD53R,1.800000X1.000000*%
G04 APERTURE END LIST*
D10*
%TO.C,C33*%
X160000000Y-76400000D03*
X160000000Y-75000000D03*
%TD*%
D11*
%TO.C,R9*%
X175300000Y-97250000D03*
X174440000Y-97250000D03*
%TD*%
D12*
%TO.C,R10*%
X177500000Y-61500000D03*
X177500000Y-63000000D03*
%TD*%
D10*
%TO.C,C30*%
X169500000Y-81860000D03*
X169500000Y-80460000D03*
%TD*%
D13*
%TO.C,Q2*%
X171350000Y-101250000D03*
X173250000Y-101250000D03*
X172300000Y-99250000D03*
%TD*%
D10*
%TO.C,C19*%
X164000000Y-86900000D03*
X164000000Y-88300000D03*
%TD*%
D14*
%TO.C,C9*%
X161800000Y-107000000D03*
X163200000Y-107000000D03*
%TD*%
D15*
%TO.C,R21*%
X146850000Y-105500000D03*
X145350000Y-105500000D03*
%TD*%
D16*
%TO.C,U10*%
X161870000Y-74550000D03*
X161870000Y-76450000D03*
X164140000Y-75500000D03*
%TD*%
D17*
%TO.C,U6*%
X173000000Y-93850000D03*
X173000000Y-94800000D03*
X173000000Y-95750000D03*
X175300000Y-95750000D03*
X175300000Y-94800000D03*
X175300000Y-93850000D03*
%TD*%
D12*
%TO.C,R4*%
X140000000Y-78800000D03*
X140000000Y-77300000D03*
%TD*%
D18*
%TO.C,USB1*%
X131800000Y-113537500D03*
X132600000Y-113537500D03*
D19*
X133750000Y-113537500D03*
X134750000Y-113537500D03*
X135250000Y-113537500D03*
X136250000Y-113537500D03*
D18*
X138200000Y-113537500D03*
X137400000Y-113537500D03*
D19*
X136750000Y-113537500D03*
X135750000Y-113537500D03*
X134250000Y-113537500D03*
X133250000Y-113537500D03*
%TD*%
D20*
%TO.C,L2*%
X175000000Y-66590000D03*
X175000000Y-72410000D03*
%TD*%
D10*
%TO.C,C8*%
X173500000Y-107900000D03*
X173500000Y-106500000D03*
%TD*%
D21*
%TO.C,C7*%
X174000000Y-76500000D03*
X176000000Y-76500000D03*
%TD*%
D10*
%TO.C,C29*%
X168000000Y-108500000D03*
X168000000Y-107100000D03*
%TD*%
%TO.C,C14*%
X165500000Y-87000000D03*
X165500000Y-88400000D03*
%TD*%
%TO.C,C16*%
X144750000Y-90175000D03*
X144750000Y-88775000D03*
%TD*%
D22*
%TO.C,U2*%
X160940000Y-103740000D03*
X160940000Y-104240000D03*
X160940000Y-104740000D03*
X160940000Y-105240000D03*
D23*
X161700000Y-105500000D03*
X162200000Y-105500000D03*
X162700000Y-105500000D03*
D22*
X163460000Y-105240000D03*
X163460000Y-104740000D03*
X163460000Y-104240000D03*
X163460000Y-103740000D03*
D23*
X162700000Y-103480000D03*
X162200000Y-103480000D03*
X161700000Y-103480000D03*
%TD*%
D15*
%TO.C,R2*%
X138500000Y-111843500D03*
X137000000Y-111843500D03*
%TD*%
D24*
%TO.C,X1*%
X135800000Y-86500000D03*
X135800000Y-88700000D03*
X137500000Y-88700000D03*
X137500000Y-86500000D03*
%TD*%
D14*
%TO.C,C1*%
X175200000Y-92250000D03*
X173800000Y-92250000D03*
%TD*%
D12*
%TO.C,R22*%
X164750000Y-67712500D03*
X164750000Y-69212500D03*
%TD*%
%TO.C,R18*%
X155500000Y-106750000D03*
X155500000Y-105250000D03*
%TD*%
D21*
%TO.C,C28*%
X174000000Y-74500000D03*
X176000000Y-74500000D03*
%TD*%
D15*
%TO.C,R14*%
X139720000Y-67760000D03*
X138220000Y-67760000D03*
%TD*%
D14*
%TO.C,C11*%
X147100000Y-93000000D03*
X148500000Y-93000000D03*
%TD*%
D25*
%TO.C,D4*%
X179810000Y-94500000D03*
X184190000Y-94500000D03*
%TD*%
D12*
%TO.C,R5*%
X138500000Y-78800000D03*
X138500000Y-77300000D03*
%TD*%
D10*
%TO.C,C31*%
X175500000Y-81460000D03*
X175500000Y-80060000D03*
%TD*%
D26*
%TO.C,FPC1*%
X125500000Y-88500000D03*
X125500000Y-88000000D03*
X125500000Y-87500000D03*
X125500000Y-87000000D03*
X125500000Y-86500000D03*
X125500000Y-86000000D03*
X125500000Y-85500000D03*
X125500000Y-85000000D03*
X125500000Y-84500000D03*
X125500000Y-84000000D03*
X125500000Y-83500000D03*
X125500000Y-83000000D03*
X125500000Y-82500000D03*
X125500000Y-82000000D03*
X125500000Y-81500000D03*
X125500000Y-81000000D03*
X125500000Y-80500000D03*
X125500000Y-80000000D03*
X125500000Y-79500000D03*
X125500000Y-79000000D03*
X125500000Y-78500000D03*
X125500000Y-78000000D03*
X125500000Y-77500000D03*
X125500000Y-77000000D03*
D27*
X128000000Y-76060000D03*
X128000000Y-89440000D03*
%TD*%
D10*
%TO.C,C6*%
X172500000Y-62600000D03*
X172500000Y-64000000D03*
%TD*%
%TO.C,C15*%
X144750000Y-86875000D03*
X144750000Y-85475000D03*
%TD*%
D28*
%TO.C,Q1*%
X175000000Y-106050000D03*
X175000000Y-107950000D03*
X177000000Y-107000000D03*
%TD*%
D12*
%TO.C,R7*%
X179000000Y-63000000D03*
X179000000Y-61500000D03*
%TD*%
D29*
%TO.C,C35*%
X162300000Y-93750000D03*
X162300000Y-95750000D03*
%TD*%
D15*
%TO.C,R13*%
X139720000Y-66260000D03*
X138220000Y-66260000D03*
%TD*%
D10*
%TO.C,C5*%
X177500000Y-64500000D03*
X177500000Y-65900000D03*
%TD*%
D15*
%TO.C,R15*%
X139720000Y-59500000D03*
X138220000Y-59500000D03*
%TD*%
D30*
%TO.C,SW1*%
X149320000Y-101000000D03*
X153680000Y-101000000D03*
%TD*%
D15*
%TO.C,R12*%
X139720000Y-64760000D03*
X138220000Y-64760000D03*
%TD*%
D30*
%TO.C,SW2*%
X149320000Y-106000000D03*
X153680000Y-106000000D03*
%TD*%
D31*
%TO.C,L3*%
X146000000Y-81000000D03*
X144600000Y-81000000D03*
%TD*%
D32*
%TO.C,U8*%
X171260000Y-80050000D03*
X171260000Y-81950000D03*
X173740000Y-81000000D03*
%TD*%
D10*
%TO.C,C13*%
X154250000Y-79075000D03*
X154250000Y-77675000D03*
%TD*%
D11*
%TO.C,R11*%
X175640000Y-103500000D03*
X176500000Y-103500000D03*
%TD*%
D30*
%TO.C,SW3*%
X170610000Y-68712500D03*
X166250000Y-68712500D03*
%TD*%
D14*
%TO.C,C18*%
X152600000Y-95000000D03*
X154000000Y-95000000D03*
%TD*%
D33*
%TO.C,U11*%
X166264798Y-60476364D03*
X166703204Y-60914770D03*
X166703204Y-60037958D03*
X167141610Y-60476364D03*
D34*
X165156408Y-60962500D03*
X165509961Y-61316053D03*
X165863515Y-61669607D03*
X166217068Y-62023160D03*
D35*
X167189340Y-62023160D03*
X167542893Y-61669607D03*
X167896447Y-61316053D03*
X168250000Y-60962500D03*
D34*
X168250000Y-59990228D03*
X167896447Y-59636675D03*
X167542893Y-59283121D03*
X167189340Y-58929568D03*
D35*
X166217068Y-58929568D03*
X165863515Y-59283121D03*
X165509961Y-59636675D03*
X165156408Y-59990228D03*
%TD*%
D14*
%TO.C,C24*%
X137500000Y-90500000D03*
X136100000Y-90500000D03*
%TD*%
D10*
%TO.C,C25*%
X155320000Y-101700000D03*
X155320000Y-100300000D03*
%TD*%
D32*
%TO.C,U9*%
X169760000Y-107050000D03*
X169760000Y-108950000D03*
X172240000Y-108000000D03*
%TD*%
D14*
%TO.C,C26*%
X138100000Y-71500000D03*
X139500000Y-71500000D03*
%TD*%
D29*
%TO.C,C3*%
X160300000Y-93750000D03*
X160300000Y-95750000D03*
%TD*%
D10*
%TO.C,C17*%
X152800000Y-79000000D03*
X152800000Y-77600000D03*
%TD*%
%TO.C,C32*%
X166000000Y-75900000D03*
X166000000Y-74500000D03*
%TD*%
D11*
%TO.C,R8*%
X174440000Y-98750000D03*
X175300000Y-98750000D03*
%TD*%
D36*
%TO.C,D5*%
X142150000Y-105500000D03*
X143850000Y-105500000D03*
%TD*%
D37*
%TO.C,C34*%
X165190000Y-64900000D03*
X168230000Y-64900000D03*
%TD*%
D38*
%TO.C,U4*%
X150600000Y-56710000D03*
X150600000Y-58110000D03*
X150600000Y-59510000D03*
X152000000Y-56710000D03*
X152000000Y-58110000D03*
X152000000Y-59510000D03*
X153400000Y-56710000D03*
X153400000Y-58110000D03*
X153400000Y-59510000D03*
D39*
X144750000Y-50390000D03*
X144750000Y-51660000D03*
X144750000Y-52930000D03*
X144750000Y-54200000D03*
X144750000Y-55470000D03*
X144750000Y-56740000D03*
X144750000Y-58010000D03*
X144750000Y-59280000D03*
X144750000Y-60550000D03*
X144750000Y-61820000D03*
X144750000Y-63090000D03*
X144750000Y-64360000D03*
X144750000Y-65630000D03*
X144750000Y-66900000D03*
D40*
X146515000Y-68150000D03*
X147785000Y-68150000D03*
X149055000Y-68150000D03*
X150325000Y-68150000D03*
X151595000Y-68150000D03*
X152865000Y-68150000D03*
X154135000Y-68150000D03*
X155405000Y-68150000D03*
X156675000Y-68150000D03*
X157945000Y-68150000D03*
X159215000Y-68150000D03*
X160485000Y-68150000D03*
D39*
X162250000Y-66900000D03*
X162250000Y-65630000D03*
X162250000Y-64360000D03*
X162250000Y-63090000D03*
X162250000Y-61820000D03*
X162250000Y-60550000D03*
X162250000Y-59280000D03*
X162250000Y-58010000D03*
X162250000Y-56740000D03*
X162250000Y-55470000D03*
X162250000Y-54200000D03*
X162250000Y-52930000D03*
X162250000Y-51660000D03*
X162250000Y-50390000D03*
%TD*%
D41*
%TO.C,D2*%
X164250000Y-100250000D03*
X168650000Y-100250000D03*
%TD*%
D10*
%TO.C,C21*%
X137000000Y-93750000D03*
X137000000Y-92350000D03*
%TD*%
D36*
%TO.C,D3*%
X142075000Y-101500000D03*
X143775000Y-101500000D03*
%TD*%
D42*
%TO.C,F1*%
X178590000Y-89500000D03*
X185190000Y-89500000D03*
%TD*%
D10*
%TO.C,C10*%
X165200000Y-105000000D03*
X165200000Y-103600000D03*
%TD*%
D43*
%TO.C,Card1*%
X136280000Y-67740000D03*
X136280000Y-66640000D03*
X136280000Y-65540000D03*
X136280000Y-64440000D03*
X136280000Y-63340000D03*
X136280000Y-62240000D03*
X136280000Y-61140000D03*
X136280000Y-60040000D03*
X136280000Y-58940000D03*
D44*
X135430000Y-57740000D03*
D45*
X125720000Y-57740000D03*
X125720000Y-73260000D03*
D44*
X135430000Y-72420000D03*
%TD*%
D12*
%TO.C,R6*%
X143000000Y-76000000D03*
X143000000Y-74500000D03*
%TD*%
D10*
%TO.C,C20*%
X162500000Y-86900000D03*
X162500000Y-88300000D03*
%TD*%
D12*
%TO.C,R3*%
X141500000Y-78800000D03*
X141500000Y-77300000D03*
%TD*%
D46*
%TO.C,U5*%
X138160000Y-74325000D03*
D47*
X138300000Y-74200000D03*
X139100000Y-74200000D03*
X139900000Y-74200000D03*
X140700000Y-74200000D03*
X141500000Y-74200000D03*
X141500000Y-75000000D03*
X141500000Y-75800000D03*
X140700000Y-75800000D03*
X139900000Y-75800000D03*
X139100000Y-75800000D03*
X138300000Y-75800000D03*
X138300000Y-75000000D03*
%TD*%
D15*
%TO.C,R1*%
X132000000Y-111843500D03*
X133500000Y-111843500D03*
%TD*%
D48*
%TO.C,U1*%
X152138819Y-79835519D03*
X151785266Y-80189072D03*
X151431713Y-80542625D03*
X151078159Y-80896179D03*
X150724606Y-81249732D03*
X150371052Y-81603286D03*
X150017499Y-81956839D03*
X149663946Y-82310392D03*
X149310392Y-82663946D03*
X148956839Y-83017499D03*
X148603286Y-83371052D03*
X148249732Y-83724606D03*
X147896179Y-84078159D03*
X147542625Y-84431713D03*
X147189072Y-84785266D03*
X146835519Y-85138819D03*
D49*
X146835519Y-87861181D03*
X147189072Y-88214734D03*
X147542625Y-88568287D03*
X147896179Y-88921841D03*
X148249732Y-89275394D03*
X148603286Y-89628948D03*
X148956839Y-89982501D03*
X149310392Y-90336054D03*
X149663946Y-90689608D03*
X150017499Y-91043161D03*
X150371052Y-91396714D03*
X150724606Y-91750268D03*
X151078159Y-92103821D03*
X151431713Y-92457375D03*
X151785266Y-92810928D03*
X152138819Y-93164481D03*
D48*
X154861181Y-93164481D03*
X155214734Y-92810928D03*
X155568287Y-92457375D03*
X155921841Y-92103821D03*
X156275394Y-91750268D03*
X156628948Y-91396714D03*
X156982501Y-91043161D03*
X157336054Y-90689608D03*
X157689608Y-90336054D03*
X158043161Y-89982501D03*
X158396714Y-89628948D03*
X158750268Y-89275394D03*
X159103821Y-88921841D03*
X159457375Y-88568287D03*
X159810928Y-88214734D03*
X160164481Y-87861181D03*
D49*
X160164481Y-85138819D03*
X159810928Y-84785266D03*
X159457375Y-84431713D03*
X159103821Y-84078159D03*
X158750268Y-83724606D03*
X158396714Y-83371052D03*
X158043161Y-83017499D03*
X157689608Y-82663946D03*
X157336054Y-82310392D03*
X156982501Y-81956839D03*
X156628948Y-81603286D03*
X156275394Y-81249732D03*
X155921841Y-80896179D03*
X155568287Y-80542625D03*
X155214734Y-80189072D03*
X154861181Y-79835519D03*
%TD*%
D15*
%TO.C,R19*%
X146925000Y-101500000D03*
X145425000Y-101500000D03*
%TD*%
D50*
%TO.C,L1*%
X170700000Y-94750000D03*
X164900000Y-94750000D03*
%TD*%
D14*
%TO.C,C2*%
X173300000Y-97250000D03*
X171900000Y-97250000D03*
%TD*%
D51*
%TO.C,R20*%
X170250000Y-100390000D03*
X170250000Y-101250000D03*
%TD*%
D41*
%TO.C,D1*%
X168800000Y-104500000D03*
X173200000Y-104500000D03*
%TD*%
D15*
%TO.C,R16*%
X139720000Y-61000000D03*
X138220000Y-61000000D03*
%TD*%
D14*
%TO.C,C23*%
X136600000Y-84600000D03*
X138000000Y-84600000D03*
%TD*%
%TO.C,C27*%
X138100000Y-72800000D03*
X139500000Y-72800000D03*
%TD*%
D10*
%TO.C,C12*%
X143500000Y-90075000D03*
X143500000Y-88675000D03*
%TD*%
D52*
%TO.C,U7*%
X173975000Y-64583000D03*
X174925000Y-64583000D03*
X175875000Y-64583000D03*
X175875000Y-62283000D03*
X174925000Y-62283000D03*
X173975000Y-62283000D03*
%TD*%
D53*
%TO.C,X2*%
X137000000Y-95500000D03*
X137000000Y-98000000D03*
%TD*%
D15*
%TO.C,R17*%
X139720000Y-63000000D03*
X138220000Y-63000000D03*
%TD*%
D10*
%TO.C,C22*%
X137000000Y-99850000D03*
X137000000Y-101250000D03*
%TD*%
M02*
